HIERARCHY
ROOT Hips
{
	OFFSET	0.00	0.00	0.00
	CHANNELS 6 Xposition Yposition Zposition Zrotation Xrotation Yrotation
	JOINT LeftUpLeg
	{
		OFFSET	 0.126116	-0.014019	-0.065224
		CHANNELS 3 Zrotation Xrotation Yrotation
		JOINT LeftLeg
		{
			OFFSET	 0.000000	 0.000000	 0.569914
			CHANNELS 3 Zrotation Xrotation Yrotation
			JOINT LeftFoot
			{
				OFFSET	 0.000000	 0.000000	 0.544423
				CHANNELS 3 Zrotation Xrotation Yrotation
				JOINT LeftToeBase
				{
					OFFSET	 0.000000	 0.000000	 0.207117
					CHANNELS 3 Zrotation Xrotation Yrotation
					End Site
					{
						OFFSET	 0.000000	 0.000000	 0.207117
					}
				}
			}
		}
	}
	JOINT RightUpLeg
	{
		OFFSET	-0.124023	-0.008373	-0.065224
		CHANNELS 3 Zrotation Xrotation Yrotation
		JOINT RightLeg
		{
			OFFSET	 0.000000	 0.000000	 0.570047
			CHANNELS 3 Zrotation Xrotation Yrotation
			JOINT RightFoot
			{
				OFFSET	 0.000000	 0.000000	 0.544354
				CHANNELS 3 Zrotation Xrotation Yrotation
				JOINT RightToeBase
				{
					OFFSET	 0.000000	 0.000000	 0.207540
					CHANNELS 3 Zrotation Xrotation Yrotation
					End Site
					{
						OFFSET	 0.000000	 0.000000	 0.207540
					}
				}
			}
		}
	}
	JOINT Spine
	{
		OFFSET	 0.000184	-0.007763	 0.117403
		CHANNELS 3 Zrotation Xrotation Yrotation
		JOINT Spine1
		{
			OFFSET	 0.000000	 0.000000	 0.137269
			CHANNELS 3 Zrotation Xrotation Yrotation
			JOINT Spine2
			{
				OFFSET	 0.000000	 0.000000	 0.156879
				CHANNELS 3 Zrotation Xrotation Yrotation
				JOINT LeftShoulder
				{
					OFFSET	 0.080501	-0.002496	 0.160144
					CHANNELS 3 Zrotation Xrotation Yrotation
					JOINT LeftArm
					{
						OFFSET	 0.000000	 0.000000	 0.164363
						CHANNELS 3 Zrotation Xrotation Yrotation
						JOINT LeftForeArm
						{
							OFFSET	 0.000000	 0.000000	 0.364576
							CHANNELS 3 Zrotation Xrotation Yrotation
							JOINT LeftHand
							{
								OFFSET	 0.000000	 0.000000	 0.360812
								CHANNELS 3 Zrotation Xrotation Yrotation
								JOINT LeftHandIndex1
								{
									OFFSET	 0.000000	 0.000000	 0.086006
									CHANNELS 3 Zrotation Xrotation Yrotation
									JOINT LeftHandIndex2
									{
										OFFSET	 0.000000	 0.000000	 0.047236
										CHANNELS 3 Zrotation Xrotation Yrotation
										JOINT LeftHandIndex3
										{
											OFFSET	-0.004284	-0.000551	 0.038166
											CHANNELS 3 Zrotation Xrotation Yrotation
											End Site
											{
												OFFSET	-0.004284	-0.000551	 0.038166
											}
										}
									}
								}
							}
						}
					}
				}
				JOINT Neck
				{
					OFFSET	 0.000000	 0.000000	 0.176489
					CHANNELS 3 Zrotation Xrotation Yrotation
					JOINT Head
					{
						OFFSET	 0.000000	-0.001747	 0.077940
						CHANNELS 3 Zrotation Xrotation Yrotation
						End Site
						{
							OFFSET	 0.000000	-0.001747	 0.077940
						}
					}
				}
				JOINT RightShoulder
				{
					OFFSET	-0.080363	 0.000306	 0.159706
					CHANNELS 3 Zrotation Xrotation Yrotation
					JOINT RightArm
					{
						OFFSET	 0.000000	 0.000000	 0.164196
						CHANNELS 3 Zrotation Xrotation Yrotation
						JOINT RightForeArm
						{
							OFFSET	 0.000000	 0.000000	 0.365611
							CHANNELS 3 Zrotation Xrotation Yrotation
							JOINT RightHand
							{
								OFFSET	 0.000000	 0.000000	 0.360648
								CHANNELS 3 Zrotation Xrotation Yrotation
								JOINT RightHandIndex1
								{
									OFFSET	 0.000000	 0.000000	 0.069977
									CHANNELS 3 Zrotation Xrotation Yrotation
									JOINT RightHandIndex2
									{
										OFFSET	 0.000000	 0.000000	 0.052305
										CHANNELS 3 Zrotation Xrotation Yrotation
										JOINT RightHandIndex3
										{
											OFFSET	 0.009002	-0.000782	 0.042196
											CHANNELS 3 Zrotation Xrotation Yrotation
											End Site
											{
												OFFSET	 0.009002	-0.000782	 0.042196
											}
										}
									}
								}
							}
						}
					}
				}
			}
		}
	}
}
MOTION
Frames:    8
Frame Time: 0.03333334
-5.647648	-25.185860	 1.029709	-24.429560	 17.367590	 3.761464	 3.526606	-34.862690	 175.379000	-1.330887	-43.082120	-0.336226	-0.744563	 80.904370	 0.512737	-2.352559	 34.132660	-0.128191	-0.737444	-36.050970	-179.505800	-2.979312	-43.078810	-0.954427	-1.602799	 81.169960	 0.510298	 2.406679	 19.828550	-0.176504	 0.763797	 15.072570	 1.295760	 0.718841	 1.834210	-1.851368	 0.191169	-3.903794	 0.019114	-125.651500	 89.280720	-141.913400	 55.275490	 66.008130	-61.600600	-10.308410	-1.418521	-21.352790	-1.907721	-4.492501	-5.387524	-5.656650	-12.220200	-1.314054	-5.213516	-0.193813	 3.566525	-1.378229	 35.397820	-2.634230	 0.806743	 0.129733	-3.806872	 0.085462	-6.757310	 1.310642	 93.698610	 85.947730	 172.013900	-61.329900	 74.915230	 70.743600	-2.480275	-14.878280	 29.759910	-24.070360	-5.462984	 9.609405	-9.897272	-9.983126	-38.894450	 5.070815	-0.697434	-9.399699	-2.350882	 35.473990	 5.254307
-5.650690	-25.198600	 1.030271	-24.298790	 17.959170	 3.790848	 3.608119	-34.950950	 175.559200	-1.889283	-43.141650	-0.675101	-0.944642	 81.532140	 0.304193	-2.352896	 34.086880	-0.127107	-0.772447	-35.783980	-179.393600	-2.692521	-42.648100	-0.784798	-1.577779	 82.198710	 0.735249	 2.405888	 20.615000	-0.160870	 0.829786	 14.784910	 1.127826	 0.737612	 1.565254	-1.937446	 0.125163	-4.237781	 0.012874	-124.426400	 89.253230	-143.107700	 59.087110	 67.078380	-62.922960	-9.323021	-1.561906	-19.926140	-1.534460	-5.935219	-5.397195	-5.327868	-11.885790	-0.577846	-5.213516	-0.193813	 3.566525	-1.378229	 35.397820	-2.634230	 0.749448	-0.072047	-3.665684	 0.014365	-7.223799	 1.353371	 93.678860	 85.981560	 172.105200	-56.669240	 77.140940	 64.303120	-3.642768	-13.446090	 24.471090	-25.494450	-6.859354	 9.631757	-9.450216	-9.089400	-38.486740	 5.070815	-0.697434	-9.399699	-2.350882	 35.473990	 5.254307
-5.653823	-25.210290	 1.030356	-24.398700	 18.438450	 3.836467	 3.557109	-34.977830	 175.623800	-2.063923	-43.446330	-0.837399	-1.048259	 82.096280	 0.214105	-2.346633	 34.909700	-0.146706	-0.747218	-35.471820	-179.460700	-2.406102	-42.355030	-0.578059	-1.486915	 82.947980	 0.920591	 2.404999	 21.302830	-0.147124	 0.992331	 14.515080	 1.055745	 0.837434	 1.256956	-1.953511	 0.083319	-4.599075	 0.008831	-121.541200	 89.180520	-145.919800	 62.320450	 67.902340	-64.048550	-8.264130	-1.722565	-18.740320	-1.090688	-7.677461	-5.412457	-4.734026	-11.316950	 0.774802	-5.213516	-0.193813	 3.566525	-1.378229	 35.397820	-2.634230	 0.742693	-0.340978	-3.490496	-0.076726	-7.676353	 1.200589	 93.672080	 86.043690	 172.211400	-49.010350	 79.034770	 54.731240	-4.393177	-12.523560	 21.103520	-26.736320	-8.574416	 9.639010	-9.055535	-8.255586	-38.148400	 5.070815	-0.697434	-9.399699	-2.350882	 35.473990	 5.254307
-5.656514	-25.220360	 1.030638	-24.684390	 18.799100	 3.914714	 3.547229	-34.913200	 175.651000	-2.120955	-43.692110	-0.894805	-1.099106	 82.451350	 0.197065	-2.339524	 35.783180	-0.167851	-0.731086	-35.257990	-179.558900	-2.288132	-42.204270	-0.489149	-1.447761	 83.293790	 1.002888	 2.404695	 21.514450	-0.142876	 1.172642	 14.312310	 0.958925	 0.979456	 0.986648	-1.845522	 0.107986	-4.913228	 0.011740	-117.124100	 89.050850	-150.282600	 64.569150	 68.678930	-64.628810	-7.621917	-1.820241	-17.832330	-0.839600	-9.610981	-5.436450	-4.189460	-10.760950	 2.038275	-5.213516	-0.193813	 3.566525	-1.378229	 35.397820	-2.634230	 0.814027	-0.525977	-3.331078	-0.114945	-8.116756	 1.250153	 93.859500	 86.223850	 172.110000	-40.512730	 80.197730	 44.685880	-4.692144	-11.859280	 19.067650	-27.358950	-10.483320	 9.665376	-8.817047	-7.683369	-37.988120	 5.070815	-0.697434	-9.399699	-2.350882	 35.473990	 5.254307
-5.658792	-25.229690	 1.031833	-25.033850	 19.185500	 3.951813	 3.572835	-34.800380	 175.726600	-2.314801	-43.651880	-1.015981	-1.172583	 82.498940	 0.135517	-2.333035	 36.533170	-0.186318	-0.777507	-35.336410	-179.518800	-2.463973	-42.136870	-0.635494	-1.562818	 83.366790	 0.959167	 2.404605	 21.575970	-0.141648	 1.277398	 14.085930	 0.832202	 1.085854	 0.796303	-1.650683	 0.186184	-5.132509	 0.020595	-111.651000	 88.835340	-155.771000	 66.149770	 69.393480	-64.924270	-7.411086	-1.836650	-17.112230	-0.891158	-11.909190	-5.475822	-3.974617	-10.627200	 2.544034	-5.213516	-0.193813	 3.566525	-1.378229	 35.397820	-2.634230	 0.897619	-0.598865	-3.074119	-0.074891	-8.475353	 1.425045	 94.234660	 86.474690	 171.779000	-32.714170	 80.719220	 35.550670	-4.767848	-11.369220	 17.873990	-27.384150	-12.752560	 9.723332	-8.714377	-7.570640	-37.823410	 5.070815	-0.697434	-9.399699	-2.350882	 35.473990	 5.254307
-5.660910	-25.237460	 1.033563	-25.374060	 19.543890	 3.905786	 3.574894	-34.784910	 175.770800	-2.564461	-43.487400	-1.180437	-1.247679	 82.326680	 0.032291	-2.327580	 37.134550	-0.201317	-0.852282	-35.408150	-179.360900	-2.651517	-42.070030	-0.807355	-1.701765	 83.404690	 0.908136	 2.404526	 21.626210	-0.140635	 1.330403	 13.902450	 0.815603	 1.159590	 0.686978	-1.469114	 0.280642	-5.253900	 0.031338	-108.657400	 88.669540	-158.795600	 67.141680	 69.822730	-65.261020	-6.885460	-1.972571	-16.519100	-0.551820	-14.361530	-5.524904	-3.853527	-10.896210	 2.830683	-5.213516	-0.193813	 3.566525	-1.378229	 35.397820	-2.634230	 0.956643	-0.757645	-2.800426	 0.007465	-8.549204	 1.642302	 94.657810	 86.685890	 171.342700	-27.345590	 80.812770	 29.193120	-5.028180	-11.216420	 17.340490	-27.329150	-15.169170	 9.812920	-8.654068	-7.630575	-37.637110	 5.070815	-0.697434	-9.399699	-2.350882	 35.473990	 5.254307
-5.663424	-25.244610	 1.035115	-25.650450	 19.788200	 3.880604	 3.573399	-34.497230	 175.789600	-2.700897	-43.276330	-1.270713	-1.298746	 82.189900	-0.021988	-2.323184	 37.599330	-0.213054	-0.825492	-35.339250	-179.260200	-2.897273	-41.901850	-0.960127	-1.822753	 83.379070	 0.855279	 2.404591	 21.580760	-0.141547	 1.366272	 13.707560	 0.833005	 1.216813	 0.619790	-1.355996	 0.361761	-5.321641	 0.040609	-107.288100	 88.587640	-160.225300	 67.537590	 70.032690	-65.428470	-6.296700	-2.142526	-16.163640	-0.131920	-16.980620	-5.589015	-4.004095	-11.027670	 2.477459	-5.213516	-0.193813	 3.566525	-1.378229	 35.397820	-2.634230	 1.012045	-0.803528	-2.579126	 0.077283	-8.631438	 1.732205	 94.867940	 86.794910	 171.148200	-23.967030	 80.707140	 25.086630	-5.214136	-11.226010	 17.243520	-27.023260	-17.751220	 9.942049	-8.593943	-7.707587	-37.439550	 5.070815	-0.697434	-9.399699	-2.350882	 35.473990	 5.254307
-5.665905	-25.249950	 1.036215	-25.746820	 19.929030	 3.860530	 3.567766	-34.301350	 175.805700	-2.673276	-43.094340	-1.249951	-1.316553	 82.210440	 0.004151	-2.320220	 37.904470	-0.220823	-0.746975	-35.113570	-179.224700	-2.967404	-41.603940	-0.965047	-1.818827	 83.470690	 0.848758	 2.404832	 21.418830	-0.144791	 1.360975	 13.486990	 0.852867	 1.236940	 0.579545	-1.307673	 0.417859	-5.356815	 0.047034	-106.859500	 88.573170	-160.719200	 67.401080	 70.053410	-65.275050	-6.390671	-2.124789	-16.222820	-0.449599	-19.287440	-5.664649	-4.151096	-11.102810	 2.133408	-5.213516	-0.193813	 3.566525	-1.378229	 35.397820	-2.634230	 1.055817	-0.777692	-2.537132	 0.144062	-8.723106	 1.860646	 94.908650	 86.827930	 171.130900	-22.450470	 80.543080	 23.145430	-5.214677	-11.244710	 17.349490	-26.491240	-20.036150	 10.082380	-8.548512	-7.778534	-37.281660	 5.070815	-0.697434	-9.399699	-2.350882	 35.473990	 5.254307
